<?xml version="1.0" encoding="UTF-8"?>
<svg id="Layer_1" data-name="Layer 1" xmlns="http://www.w3.org/2000/svg" version="1.1" viewBox="0 0 1000 516.9">
  <defs>
    <style>
      .cls-1 {
        fill: #0c1435;
        stroke-width: 0px;
      }
    </style>
  </defs>
  <g id="OBJECTS">
    <path class="cls-1" d="M181,440l3.5-28.8h35.6c1.8,0,3.4.7,4.6,2,1.2,1.3,1.7,3.1,1.4,4.8l-2.7,21.9h-6.5l2.5-20.5c.1-.9.1-1.5,0-1.6-.5-.2-1-.2-1.5-.2h-8c-.5,0-1.1,0-1.6.2-.2.5-.4,1-.4,1.6l-2.5,20.5h-6.5l2.5-20.5c.1-.5.1-1,0-1.6-.1-.1-.6-.2-1.5-.2h-8c-.5,0-1.1,0-1.6.2-.2.5-.4,1-.4,1.6l-2.5,20.5h-6.5Z"/>
    <path class="cls-1" d="M235.1,440c-1.8,0-3.4-.7-4.6-2-1.2-1.3-1.7-3.1-1.4-4.8l1.3-10.8h22.7l.4-2.9c.1-.5.1-1,0-1.6-.1-.1-.6-.2-1.5-.2h-21l.8-6.5h22.4c1.8,0,3.4.7,4.6,2,1.2,1.3,1.7,3.1,1.4,4.8l-2.7,21.9h-22.3ZM237.3,433.5h14.5l.6-5.3h-16.2l-.4,3.6c-.1.5-.1,1,0,1.6,0,.1.6.2,1.5.2Z"/>
    <path class="cls-1" d="M261.7,440l2.7-21.9c.2-1.9,1.2-3.6,2.6-4.8,1.4-1.3,3.2-2,5.1-2h16l-.8,6.5h-14.6c-.5,0-1.1,0-1.6.2-.2.5-.4,1-.4,1.6l-2.5,20.5h-6.5Z"/>
    <path class="cls-1" d="M287.7,440l4.1-33.7h6.5l-2,16h5.1l11.6-11.1h7l-.2,1.8-13,12.6,9.9,12.6-.2,1.8h-6.9l-8.9-11.1h-5.1l-1.4,11.1h-6.5Z"/>
    <path class="cls-1" d="M326.3,440c-1.8,0-3.4-.7-4.6-2-1.2-1.3-1.7-3.1-1.4-4.8l1.9-15.1c.2-1.9,1.2-3.6,2.6-4.8,1.4-1.3,3.2-2,5.1-2h15.5c1.8,0,3.4.7,4.6,2,1.2,1.3,1.7,3.1,1.4,4.8l-1.3,10.8h-22.7l-.4,2.9c-.1.5-.1,1,0,1.6.1.1.6.2,1.5.2h21l-.8,6.5h-22.4ZM328,423.1h16.2l.4-3.6c.1-.5.1-1,0-1.6-.1-.1-.6-.2-1.5-.2h-12.7c-.5,0-1.1,0-1.6.2-.2.5-.4,1-.4,1.6l-.5,3.6Z"/>
    <path class="cls-1" d="M360.7,440c-1.8,0-3.4-.7-4.6-2-1.2-1.3-1.7-3.1-1.4-4.8l3.3-26.8h6.5l-.6,4.9h11.2l-.8,6.5h-11.2l-1.7,14c-.1.5-.1,1,0,1.6.1.1.6.2,1.5.2h9.5l-.8,6.5h-10.9Z"/>
    <path class="cls-1" d="M375,444.9l4.1-33.6h22.4c1.8,0,3.4.7,4.6,2,1.2,1.3,1.7,3.1,1.4,4.8l-1.9,15.1c-.2,1.9-1.2,3.6-2.6,4.8-1.4,1.3-3.2,2-5.1,2h-15.9l-.6,4.9h-6.5ZM384.6,433.5h12.7c.5,0,1.1,0,1.6-.2.2-.5.4-1,.4-1.6l1.5-12.3c.1-.5.1-1,0-1.6-.1-.1-.6-.2-1.5-.2h-12.7c-.5,0-1.1,0-1.6.2-.2.5-.4,1-.4,1.6l-1.5,12.3c-.1.5-.1,1,0,1.6,0,.1.6.2,1.5.2h0Z"/>
    <path class="cls-1" d="M415.2,440c-1.8,0-3.4-.7-4.6-2-1.2-1.3-1.7-3.1-1.4-4.8l3.3-26.8h6.5l-3.1,25.4c-.1.9-.1,1.5,0,1.6s.6.2,1.5.2h4.4l-.8,6.5h-5.9Z"/>
    <path class="cls-1" d="M431.6,440c-1.8,0-3.4-.7-4.6-2-1.2-1.3-1.7-3.1-1.4-4.8l1.3-10.8h22.7l.4-2.9c.1-.5.1-1,0-1.6-.1-.1-.6-.2-1.5-.2h-21l.8-6.5h22.4c1.8,0,3.4.7,4.6,2,1.2,1.3,1.7,3.1,1.4,4.8l-2.6,21.9h-22.4ZM433.8,433.5h14.5l.7-5.3h-16.2l-.4,3.6c-.1.5-.1,1,0,1.6,0,.1.6.2,1.5.2Z"/>
    <path class="cls-1" d="M464.6,440c-1.8,0-3.4-.7-4.6-2-1.2-1.3-1.7-3.1-1.4-4.8l1.9-15.1c.2-1.9,1.2-3.6,2.6-4.8,1.4-1.3,3.2-2,5.1-2h22.3l-.8,6.5h-20.9c-.5,0-1.1,0-1.6.2-.2.5-.4,1-.4,1.6l-1.5,12.3c-.1.5-.1,1,0,1.6.1.1.6.2,1.5.2h21l-.8,6.5h-22.4Z"/>
    <path class="cls-1" d="M497.8,440c-1.8,0-3.4-.7-4.6-2-1.2-1.3-1.7-3.1-1.4-4.8l1.9-15.1c.2-1.9,1.2-3.6,2.6-4.8,1.4-1.3,3.2-2,5.1-2h15.5c1.8,0,3.4.7,4.6,2,1.2,1.3,1.7,3.1,1.4,4.8l-1.3,10.8h-22.7l-.4,2.9c-.1.5-.1,1,0,1.6.1.1.6.2,1.5.2h21l-.8,6.5h-22.4ZM499.5,423h16.2l.4-3.6c.1-.9.1-1.5,0-1.6s-.6-.2-1.5-.2h-12.7c-.5,0-1.1,0-1.6.2-.2.5-.4,1-.4,1.6l-.4,3.6Z"/>
    <path class="cls-1" d="M550.3,405.8c-5.7-6.5-14-10.3-22.7-10.3H176.3c-16.6-.3-30.4,12.9-30.7,29.6s12.9,30.4,29.6,30.7c.4,0,.7,0,1.1,0h351.3c16.6,0,30.1-13.5,30.2-30.1,0-7.3-2.7-14.4-7.5-19.9h0ZM553.4,429.1c-1.8,12.9-12.8,22.5-25.8,22.6H176.3c-14.4,0-26-11.7-26-26s11.7-26,26-26h351.3c14.4,0,26,11.6,26,26,0,1.2,0,2.4-.2,3.6Z"/>
    <path class="cls-1" d="M814,87.8h-192.1l-20.3,165-1.5,12.8-3.2,26-1.8,14.4h-47.6l.7-5.9,3.1-25.2,1.2-9.8,8.4-68v-.4l3.8-31,.5-3.8c2.5-20.1-2.6-37.5-15.3-52.1-12.7-14.6-29.2-22-49.7-22h-108.7l-9.6,77.9v.3h88.1c9.3,0,15.9,7.5,14.8,16.9h0l-1.7,13.8h-222.6v.4s-8.5,68.1-8.5,68.1l-1.2,9.8-3.8,31.1h-46.8l-.9.3,31.1-253.9h-77.7l-10.2,82.4h0l-21.6,175.3c-2.5,20.1,2.7,37.5,15.6,52.1,12.8,14.6,29.3,22,49.4,22h399.4l-8.8,71.6h78.2l8.8-71.6h114c20.4,0,38.8-7.3,55.1-22,16.3-14.7,25.7-32,28.1-52.1l18.3-148.2c2.5-20.1-2.6-37.5-15.3-52.1-12.7-14.6-29.2-22-49.7-22ZM341.7,306h-16.9l1.8-14.4c1.3-9.4,9.3-16.5,18.8-16.7h128l-1.8,14.4c-1.3,9.4-9.3,16.5-18.8,16.7h-111.1ZM798.2,182.9l-13.1,106.3c-1.3,9.5-9.4,16.6-18.9,16.9h-93l.4-3.1,1-8.5.7-5.3,13.1-106.3h0c1.3-9.5,9.4-16.6,18.9-16.9h93l-2,16.9Z"/>
  </g>
</svg>