<?xml version="1.0" encoding="UTF-8"?>
<svg id="Layer_2" data-name="Layer 2" xmlns="http://www.w3.org/2000/svg" version="1.1" viewBox="0 0 1054.1 619.2">
  <defs>
    <style>
      .cls-1 {
        fill: #010c33;
        stroke-width: 0px;
      }
    </style>
  </defs>
  <g id="Layer_1-2" data-name="Layer 1-2">
    <g>
      <path class="cls-1" d="M849.5,129h-197.3l-20.9,169.5-1.6,13.1-3.3,26.7-1.8,14.8h-48.9l.7-6,3.2-25.9,1.3-10.1,8.6-69.9v-.4l3.9-31.8.5-3.9c2.5-20.6-2.7-38.5-15.7-53.5-13-15.1-30-22.6-51-22.6h-111.7l-9.9,79.9v.3h90.5c9.6,0,16.4,7.8,15.2,17.3h0l-1.8,14.2h-228.6v.4s-8.7,69.9-8.7,69.9l-1.3,10.1-3.9,31.9h-48l-.9.3,32-260.8h-79.8l-10.4,84.6h0l-22.2,180c-2.5,20.6,2.8,38.5,16,53.5,13.2,15,30.1,22.6,50.7,22.6h410.1l-9.1,73.5h80.3l9.1-73.6h117.1c21,0,39.8-7.5,56.6-22.6,16.7-15.1,26.3-32.9,28.9-53.5l18.8-152.2c2.5-20.6-2.7-38.5-15.7-53.5-13.1-15-30.1-22.5-51.1-22.5h0ZM364.5,353.1h-17.3l1.8-14.7c1.4-9.7,9.5-16.9,19.3-17.2h131.5l-1.8,14.7c-1.4,9.7-9.5,16.9-19.3,17.2h-114.1ZM833.3,226.6l-13.5,109.1c-1.4,9.8-9.6,17.1-19.5,17.3h-95.5l.4-3.2,1-8.7.7-5.4,13.5-109.1h0c1.4-9.8,9.6-17.1,19.5-17.3h95.5l-2.1,17.3h0Z"/>
      <g>
        <g>
          <path class="cls-1" d="M266.3,468.2l-3.2,22.5h-23c-3.9,0-6.6-3.2-6-7.1l1.6-11.1h23.4l.6-4.4c0-.2-.1-.4-.3-.4h-23l.9-6.7h23c3.9,0,6.6,3.2,6.1,7.1h0ZM258.1,479.3h-16.7l-.6,4.4c0,.2.1.4.3.4h16.3l.7-4.7h0Z"/>
          <path class="cls-1" d="M382.9,461.2c3.9,0,6.6,3.2,6,7.1l-2.2,15.5c-.5,3.9-4.1,7.1-8,7.1h-16c-3.9,0-6.6-3.2-6-7.1l2.2-15.5c.5-3.9,4.1-7.1,8-7.1h16ZM366,467.8c-.2,0-.4.1-.4.4l-2.2,15.5c0,.2.1.4.3.4h16c.2,0,.4-.1.4-.4l2.2-15.5c0-.2-.1-.4-.3-.4h-16Z"/>
          <path class="cls-1" d="M457.4,468.2l-3.2,22.5h-23c-3.9,0-6.6-3.2-6-7.1l1.6-11.1h23.3l.6-4.4c0-.2-.1-.4-.3-.4h-23l.9-6.7h23c3.9,0,6.6,3.2,6.1,7.1h0ZM449.2,479.3h-16.7l-.6,4.4c0,.2.1.4.3.4h16.3l.7-4.7Z"/>
          <path class="cls-1" d="M483.1,490.8h-6.7l.9-6.7h6.7l-.9,6.7Z"/>
          <path class="cls-1" d="M492.2,465h6.5l-3.5,25.7h-6.7l3.7-25.7h0ZM500,456.2l-.9,6.2h-6.7l.9-6.2h6.7Z"/>
          <path class="cls-1" d="M527.7,461.2c3.9,0,6.6,3.2,6,7.1l-2.2,15.5c-.5,3.9-4.1,7.1-8,7.1h-16c-3.9,0-6.6-3.2-6-7.1l2.2-15.5c.5-3.9,4.1-7.1,8-7.1h16ZM510.8,467.8c-.2,0-.4.1-.4.4l-2.2,15.5c0,.2.1.4.3.4h16c.2,0,.4-.1.4-.4l2.2-15.5c0-.2-.1-.4-.3-.4h-16Z"/>
          <path class="cls-1" d="M223,483.7l3.9-27.5h-6.7l-3.9,27.5c-.5,3.9,2.2,7.1,6,7.1h6l.9-6.7h-6c-.2,0-.3-.2-.2-.4h0Z"/>
          <path class="cls-1" d="M345.7,483.7l3.9-27.5h-6.7l-3.9,27.5c-.5,3.9,2.2,7.1,6,7.1h6l.9-6.7h-6c-.2,0-.3-.2-.2-.4h0Z"/>
          <path class="cls-1" d="M417.2,461.2h-16.3l.7-4.9h-6.7l-4.8,34.5h23c3.9,0,7.5-3.2,8-7.1l2.2-15.5c.6-3.9-2.1-7-6-7h0ZM414.4,483.7c0,.2-.2.4-.4.4h-16c-.2,0-.3-.1-.3-.4l2.2-15.5c0-.2.2-.4.4-.4h16c.2,0,.3.1.3.4l-2.2,15.5Z"/>
          <path class="cls-1" d="M466.2,483.7l3.9-27.5h-6.7l-3.9,27.5c-.5,3.9,2.2,7.1,6,7.1h6l.9-6.7h-6c-.2,0-.3-.2-.3-.4h0Z"/>
          <path class="cls-1" d="M296,461.2h-23l-4.9,34.6h6.7l.7-5h16.3c3.9,0,7.5-3.2,8-7.1l2.2-15.5c.6-3.9-2.1-7.1-6-7.1h0ZM293.2,483.7c0,.2-.2.4-.4.4h-16c-.2,0-.3-.1-.3-.4l2.2-15.5c0-.2.2-.4.4-.4h16c.2,0,.3.1.3.4l-2.2,15.5Z"/>
          <path class="cls-1" d="M336,469.3h-5.1l.2-1.2c0-.1-.1-.4-.2-.4h-18.4c-.1,0-.4.1-.4.4l-2.3,15.6c0,.1.1.4.2.4h18.2c.1,0,.4-.1.4-.4l.6-4.2h-6.7l.6-5.5h12.1l-1.3,11c-.5,3.2-3.3,5.7-6.5,5.7h-18.2c-3.2,0-5.5-2.5-5-5.7l2.2-18.2c.5-3.2,3.3-5.7,6.4-5.7h17.9c3.2,0,5.5,2.5,5.1,5.7v2.4h.1Z"/>
        </g>
        <path class="cls-1" d="M563.1,455.5h0c-5.9-6.7-14.4-10.5-23.3-10.5H210.3c-8.9,0-17.4,3.9-23.3,10.6h0c-4.9,5.6-7.7,12.9-7.7,20.4,0,17.1,13.9,30.9,31,30.9h329.5c17.1,0,30.9-13.8,31-30.9,0-7.5-2.7-14.8-7.7-20.4h0ZM539.7,502.6h-1.4s-326.7,0-326.7,0h0s-1.4,0-1.4,0c-13.4,0-24.7-9.9-26.5-23.2-.2-1.2-.2-2.4-.2-3.7,0-14.7,12-26.7,26.7-26.6h329.5c14.7,0,26.7,11.9,26.7,26.6,0,1.2,0,2.4-.2,3.7-1.8,13.3-13.1,23.2-26.5,23.2h0Z"/>
      </g>
    </g>
  </g>
</svg>